<svg width="142" height="28" fill="none" xmlns="http://www.w3.org/2000/svg"><path d="M54.246 5.605 47.6 16.975l-6.806-11.37h-2.602v17.134h3.003V11.53l5.645 9.249h1.4l5.645-9.408v11.37h3.003V5.604h-2.642ZM70.3 10.369c-1.001-.56-2.122-.84-3.403-.84-1.282 0-2.443.28-3.483.84a5.79 5.79 0 0 0-2.403 2.402c-.56 1-.88 2.162-.88 3.443 0 1.28.28 2.442.88 3.443.601 1 1.442 1.801 2.523 2.402 1.08.56 2.362.84 3.803.84 1.12 0 2.122-.16 3.042-.52.881-.36 1.642-.88 2.242-1.601l-1.641-1.882c-.92.96-2.122 1.401-3.563 1.401-1.121 0-2.082-.28-2.842-.84a3.449 3.449 0 0 1-1.402-2.283h10.29c.04-.4.04-.68.04-.92 0-1.321-.281-2.522-.842-3.523a6.09 6.09 0 0 0-2.362-2.362Zm-7.127 4.764c.16-.961.56-1.722 1.241-2.322.681-.56 1.522-.88 2.483-.88 1 0 1.841.28 2.482.88.68.6 1.08 1.361 1.2 2.282h-7.406v.04ZM79.467 4.604h-3.042v18.135h3.042V4.604ZM88.515 9.528c-1.081 0-2.082.12-3.043.4-.96.28-1.801.681-2.482 1.201l1.201 2.242c.48-.4 1.081-.72 1.802-.96.72-.24 1.44-.36 2.162-.36 1.08 0 1.881.24 2.442.72.56.48.8 1.2.8 2.122v.2h-3.363c-1.881 0-3.242.36-4.123 1.08-.88.721-1.321 1.642-1.321 2.843 0 .76.2 1.441.6 2.002.4.6.961 1.04 1.682 1.401.72.32 1.601.52 2.562.52.96 0 1.801-.16 2.522-.44.68-.32 1.241-.72 1.601-1.321v1.601h2.883v-7.646c0-1.842-.52-3.243-1.522-4.164-1.04-1-2.482-1.44-4.403-1.44Zm2.882 9.128c-.24.64-.68 1.16-1.24 1.521-.601.36-1.282.52-2.043.52-.8 0-1.4-.16-1.841-.48-.44-.32-.64-.76-.64-1.321 0-1.161.88-1.722 2.642-1.722h3.162v1.482h-.04ZM103.648 20.377c-.601 0-1.041-.16-1.362-.52-.32-.32-.48-.8-.48-1.441V12.21h3.483V9.768h-3.483V6.766h-3.043v3.002h-2.161v2.442h2.161v6.286c0 1.44.4 2.522 1.161 3.282.801.761 1.882 1.121 3.323 1.121.561 0 1.121-.08 1.642-.2.52-.12.96-.36 1.321-.64l-.841-2.162c-.48.32-1.041.48-1.721.48ZM111.774 9.688h-3.042V22.74h3.042V9.69ZM128.829 9.688h-3.643l-6.366 5.845V4.603h-3.042V22.74h3.042v-3.443l2.282-2.162 4.524 5.605h3.723l-5.965-7.606 5.445-5.445ZM140.479 10.89c-1.001-.922-2.482-1.402-4.404-1.402-1.081 0-2.082.12-3.043.4-.96.28-1.801.68-2.482 1.201l1.201 2.242c.481-.4 1.081-.72 1.802-.96.72-.24 1.441-.361 2.162-.361 1.081 0 1.881.24 2.442.72.56.481.8 1.202.8 2.122v.2h-3.362c-1.882 0-3.243.36-4.124 1.082-.881.72-1.321 1.64-1.321 2.842 0 .76.2 1.441.6 2.002.401.6.961 1.04 1.682 1.4.721.321 1.601.521 2.562.521.961 0 1.802-.16 2.522-.44.681-.32 1.241-.72 1.602-1.321v1.601H142v-7.646c0-1.882-.48-3.283-1.521-4.204Zm-1.522 7.766c-.24.64-.68 1.16-1.241 1.521-.6.36-1.281.52-2.041.52-.801 0-1.402-.16-1.842-.48-.44-.32-.64-.76-.64-1.321 0-1.161.88-1.722 2.642-1.722h3.162v1.482h-.04Z" fill="#fff"/><path d="m22.7 15.373-.16-.16-3.564-4.043c.76-1.001 1.962-2.803 1.962-4.644 0-2.683-2.482-5.285-2.763-5.565L17.215 0l-.961.96c-.28.281-2.763 2.923-2.763 5.566 0 1.841 1.161 3.643 1.962 4.643l-2.722 3.123-2.723-3.123c.761-1 1.962-2.802 1.962-4.643 0-2.683-2.482-5.285-2.762-5.565L8.247 0l-.96.96c-.281.281-2.763 2.923-2.763 5.566 0 1.841 1.2 3.643 1.961 4.643l-3.563 4.044-.16.16C2.482 15.653 0 18.296 0 20.938c0 2.682 2.482 5.284 2.762 5.605l.961.96.961-.96c.28-.28 2.762-2.923 2.762-5.605 0-1.842-1.16-3.643-1.961-4.644l2.762-3.123 2.722 3.123c-.76 1-1.961 2.802-1.961 4.644 0 2.682 2.482 5.284 2.762 5.605l.96.96.962-.96c.28-.28 2.762-2.923 2.762-5.605 0-1.842-1.201-3.643-1.962-4.644l2.723-3.123 2.762 3.123c-.76 1-1.962 2.802-1.962 4.644 0 2.682 2.482 5.284 2.763 5.605l.96.96.961-.96c.28-.28 2.762-2.923 2.762-5.605 0-2.642-2.482-5.245-2.762-5.565ZM3.802 23.54c-.44-.68-1.08-1.721-1.08-2.562 0-.881.6-1.922 1.08-2.562.44.64 1.081 1.681 1.081 2.562-.04.88-.64 1.921-1.08 2.562ZM8.287 9.128c-.44-.64-1.08-1.682-1.08-2.562 0-.881.6-1.922 1.08-2.563.44.64 1.08 1.682 1.08 2.563 0 .84-.64 1.881-1.08 2.562Zm4.484 14.412c-.44-.68-1.081-1.721-1.081-2.562 0-.881.6-1.922 1.08-2.562.441.64 1.082 1.681 1.082 2.562 0 .84-.64 1.881-1.081 2.562Zm4.484-14.412c-.44-.64-1.081-1.682-1.081-2.562 0-.881.6-1.922 1.08-2.563.441.64 1.081 1.682 1.081 2.563 0 .84-.64 1.881-1.08 2.562Zm4.483 14.412c-.44-.64-1.08-1.681-1.08-2.562 0-.881.6-1.922 1.08-2.562.44.64 1.081 1.681 1.081 2.562 0 .84-.6 1.921-1.08 2.562Z" fill="#D5876F"/></svg>