<svg width="79" height="16" fill="none" xmlns="http://www.w3.org/2000/svg"><path d="m29.873 3.087-3.66 6.26-3.747-6.26h-1.433v9.436h1.653V6.349l3.109 5.093h.771l3.109-5.18v6.26h1.653V3.088h-1.455ZM38.714 5.71c-.551-.309-1.168-.463-1.874-.463a3.98 3.98 0 0 0-1.918.463A3.188 3.188 0 0 0 33.6 7.033a3.845 3.845 0 0 0-.485 1.896c0 .705.155 1.345.485 1.896.331.551.794.992 1.39 1.323.595.308 1.3.463 2.094.463.617 0 1.168-.088 1.675-.287a3.102 3.102 0 0 0 1.235-.882l-.904-1.036c-.507.53-1.169.772-1.962.772-.617 0-1.147-.155-1.566-.463a1.9 1.9 0 0 1-.771-1.257h5.666c.022-.22.022-.375.022-.507 0-.728-.154-1.389-.463-1.94a3.353 3.353 0 0 0-1.3-1.3ZM34.79 8.334c.088-.53.309-.948.683-1.279a2.11 2.11 0 0 1 1.367-.485c.551 0 1.014.154 1.367.485.375.33.595.75.661 1.257H34.79v.022ZM43.763 2.535h-1.676v9.988h1.676V2.535ZM48.745 5.247c-.595 0-1.146.066-1.675.22-.53.155-.992.375-1.367.662l.661 1.235c.265-.22.596-.397.992-.53a3.746 3.746 0 0 1 1.191-.198c.595 0 1.036.132 1.345.397.309.264.44.661.44 1.168v.11h-1.851c-1.036 0-1.786.199-2.27.596-.486.397-.728.904-.728 1.565 0 .42.11.794.33 1.103.22.33.53.573.926.771.397.177.882.287 1.411.287.53 0 .992-.088 1.39-.243.374-.176.683-.397.881-.727v.882h1.587V8.334c0-1.014-.286-1.786-.837-2.293-.574-.551-1.367-.794-2.425-.794Zm1.588 5.027c-.132.353-.375.64-.684.838-.33.198-.705.286-1.124.286-.44 0-.772-.088-1.014-.264-.243-.177-.353-.42-.353-.728 0-.64.485-.948 1.455-.948h1.742v.816h-.022ZM57.08 11.222c-.332 0-.574-.088-.75-.287-.177-.176-.265-.44-.265-.793V6.724h1.918V5.38h-1.918V3.726h-1.676v1.653H53.2v1.345h1.19v3.462c0 .793.22 1.389.64 1.807.44.42 1.036.618 1.83.618.308 0 .617-.044.904-.11.286-.067.529-.199.727-.353l-.463-1.19c-.264.176-.573.264-.948.264ZM61.555 5.335h-1.676v7.188h1.676V5.335ZM70.947 5.335H68.94l-3.505 3.22v-6.02h-1.676v9.988h1.676v-1.896l1.257-1.191 2.49 3.087h2.051l-3.285-4.19 2.999-2.998ZM77.362 5.997c-.551-.507-1.367-.772-2.425-.772-.595 0-1.146.066-1.676.22-.529.155-.992.375-1.367.662l.662 1.235c.264-.22.595-.397.992-.53a3.746 3.746 0 0 1 1.19-.198c.596 0 1.037.132 1.345.397.31.264.441.661.441 1.168v.11h-1.852c-1.036 0-1.785.199-2.27.596-.485.397-.728.904-.728 1.565 0 .42.11.794.33 1.103.221.33.53.573.927.771a3.5 3.5 0 0 0 1.41.287c.53 0 .993-.088 1.39-.243.375-.176.683-.397.882-.727v.882H78.2V8.312c0-1.037-.265-1.808-.838-2.315Zm-.838 4.277c-.132.353-.374.64-.683.838-.33.198-.706.286-1.124.286-.441 0-.772-.088-1.015-.264-.242-.177-.352-.42-.352-.728 0-.64.485-.948 1.455-.948h1.741v.816h-.022Z" fill="#292C2E"/><path d="m12.5 8.466-.088-.088L10.45 6.15c.42-.551 1.08-1.543 1.08-2.557 0-1.478-1.366-2.91-1.52-3.065L9.48 0l-.529.53C8.797.682 7.43 2.138 7.43 3.593c0 1.014.64 2.006 1.08 2.557l-1.5 1.72-1.498-1.72c.419-.551 1.08-1.543 1.08-2.557 0-1.478-1.367-2.91-1.521-3.065L4.54 0l-.528.53C3.858.682 2.49 2.138 2.49 3.593c0 1.014.662 2.006 1.08 2.557L1.61 8.378l-.088.088C1.367 8.62 0 10.076 0 11.531c0 1.477 1.367 2.91 1.521 3.086l.53.53.528-.53c.155-.154 1.522-1.61 1.522-3.087 0-1.014-.64-2.006-1.08-2.557l1.52-1.72 1.5 1.72c-.42.551-1.08 1.543-1.08 2.557 0 1.478 1.366 2.91 1.52 3.087l.53.53.529-.53c.154-.154 1.521-1.61 1.521-3.087 0-1.014-.661-2.006-1.08-2.557l1.5-1.72L11 8.973c-.418.551-1.08 1.543-1.08 2.557 0 1.478 1.367 2.91 1.521 3.087l.53.53.529-.53c.154-.154 1.52-1.61 1.52-3.087 0-1.455-1.366-2.888-1.52-3.064ZM2.095 12.964c-.242-.375-.595-.949-.595-1.412 0-.484.33-1.058.595-1.41.243.352.596.926.596 1.41-.022.486-.353 1.059-.596 1.412Zm2.47-7.937c-.243-.353-.596-.926-.596-1.411s.331-1.059.596-1.411c.242.352.595.926.595 1.41 0 .464-.353 1.037-.595 1.412Zm2.469 7.936c-.243-.374-.595-.947-.595-1.41 0-.486.33-1.059.595-1.412.242.353.595.927.595 1.412 0 .462-.353 1.036-.595 1.41Zm2.47-7.936c-.243-.353-.596-.926-.596-1.411s.33-1.059.595-1.411c.243.352.595.926.595 1.41 0 .464-.352 1.037-.595 1.412Zm2.468 7.936c-.242-.352-.595-.925-.595-1.41 0-.486.33-1.059.595-1.412.243.353.596.927.596 1.412 0 .462-.331 1.058-.596 1.41Z" fill="#D5876F"/></svg>