<svg width="39" height="42" viewBox="0 0 39 42" fill="none" xmlns="http://www.w3.org/2000/svg">
<path d="M34.8104 23.5029L34.564 23.2587L29.0806 17.093C30.2512 15.5669 32.0995 12.8198 32.0995 10.0116C32.0995 5.92151 28.2796 1.95349 27.8483 1.52616L26.4313 0L24.9526 1.46512C24.5213 1.89244 20.7014 5.92151 20.7014 9.95058C20.7014 12.7587 22.4882 15.5058 23.7204 17.032L19.5308 21.7936L15.2796 17.093C16.4502 15.5669 18.2986 12.8198 18.2986 10.0116C18.2986 5.92151 14.4787 1.95349 14.0474 1.52616L12.6303 0L11.1517 1.46512C10.7204 1.89244 6.90047 5.92151 6.90047 9.95058C6.90047 12.7587 8.74882 15.5058 9.91943 17.032L4.43602 23.2587L4.18957 23.5029C3.81991 23.9302 0 27.9593 0 31.9884C0 36.0785 3.81991 40.0465 4.25118 40.4738L5.72986 41.9389L7.20853 40.4738C7.63981 40.0465 11.4597 36.0174 11.4597 31.9884C11.4597 29.1802 9.67299 26.4331 8.44076 24.907L12.6919 20.1453L16.8815 24.907C15.7109 26.4331 13.8626 29.1802 13.8626 31.9884C13.8626 36.0785 17.6825 40.0465 18.1137 40.4738L19.5924 41.9389L21.0711 40.4738C21.5024 40.0465 25.3223 36.0174 25.3223 31.9884C25.3223 29.1802 23.4739 26.4331 22.3033 24.907L26.4929 20.1453L30.7441 24.907C29.5735 26.4331 27.7251 29.1802 27.7251 31.9884C27.7251 36.0785 31.545 40.0465 31.9763 40.4738L33.455 41.9389L34.9336 40.4738C35.3649 40.0465 39.1848 36.0174 39.1848 31.9884C39 27.9593 35.2417 23.9302 34.8104 23.5029ZM5.72986 35.8953C5.05213 34.8576 4.06635 33.2703 4.06635 31.9884C4.06635 30.6453 4.99052 29.0581 5.72986 28.0814C6.40758 29.0581 7.39336 30.6453 7.39336 31.9884C7.33175 33.3314 6.40758 34.9186 5.72986 35.8953ZM12.6303 13.9186C11.9526 12.9419 10.9668 11.3547 10.9668 10.0116C10.9668 8.6686 11.891 7.0814 12.6303 6.10465C13.3081 7.0814 14.2938 8.6686 14.2938 10.0116C14.2322 11.3547 13.3081 12.9419 12.6303 13.9186ZM19.5308 35.8953C18.8531 34.8576 17.8673 33.2703 17.8673 31.9884C17.8673 30.6453 18.7915 29.0581 19.5308 28.0814C20.2085 29.0581 21.1943 30.6453 21.1943 31.9884C21.1327 33.3314 20.2085 34.9186 19.5308 35.8953ZM26.4313 13.9186C25.7536 12.9419 24.7678 11.3547 24.7678 10.0116C24.7678 8.6686 25.6919 7.0814 26.4313 6.10465C27.109 7.0814 28.0948 8.6686 28.0948 10.0116C28.0332 11.3547 27.109 12.9419 26.4313 13.9186ZM33.3318 35.8953C32.654 34.9186 31.6682 33.3314 31.6682 31.9884C31.6682 30.6453 32.5924 29.0581 33.3318 28.0814C34.0095 29.0581 34.9953 30.6453 34.9953 31.9884C34.9336 33.3314 34.0095 34.9186 33.3318 35.8953Z" fill="#D5876F"/>
</svg>
