<svg width="18" height="18" fill="none" xmlns="http://www.w3.org/2000/svg"><path fill-rule="evenodd" clip-rule="evenodd" d="M13.13 2.25a1.795 1.795 0 0 1 1.344.636c.312.33 1.276 1.352 1.276 3.086 0 1.823-1.216 3.406-1.451 3.713l-.024.031h-.001v.001a17.864 17.864 0 0 1-1.695 2.08c-1.018 1.071-2.45 2.31-4.226 3.067a20.13 20.13 0 0 1-1.952.712c-.906.285-1.731.242-2.351.15-.464-.068-.975-.29-1.48-.61s-1-.717-1.218-1.321a4.657 4.657 0 0 1-.264-1.162 2.665 2.665 0 0 1-.002-.497.712.712 0 0 1 .12-.39c.2-.328.42-.413.65-.503.073-.028.147-.057.221-.094.173-.085.664-.325 1.157-.56l.168-.08c.42-.2.78-.373 1.012-.455l.04-.015c.158-.058.351-.128.62-.098.293.033.581.244.75.493.158.236.8.992.995 1.215l.063-.032c.09-.045.19-.088.3-.136a8.058 8.058 0 0 0 2.256-1.415v-.001c.892-.785 1.516-1.77 1.713-2.1l-.007-.008s-.004-.001-.02-.017c-.14-.138-.268-.293-.383-.433a9.208 9.208 0 0 0-.148-.176c-.187-.216-.282-.409-.372-.59a11.825 11.825 0 0 0-.038-.076c-.203-.404-.09-.849.028-1.083l.017-.042c.026-.057.074-.165.124-.284.07-.164.156-.372.249-.595l.033-.08.195-.47.393-.938v-.001c.165-.393.388-.675.68-.812.268-.124.507-.103.554-.098H12.465c.209-.01.438-.012.665-.012Zm0 1.129a13.76 13.76 0 0 0-.654.013l-.102.004c-.02.028-.059.089-.112.214l-.416.998-.17.408-.05.12-.235.56-.03.071c-.06.144-.099.234-.142.32v.003c-.022.042-.034.054-.038.057.002 0 .006.003.01.01l.058.119c.07.143.1.203.197.315.07.08.14.163.204.24.108.13.204.244.266.305l.027.026c.09.085.225.216.314.451.097.26.052.617-.105.883-.209.354-.897 1.475-1.967 2.416a9.23 9.23 0 0 1-1.802 1.252c-.37.195-.69.33-.868.406-.064.027-.11.046-.133.058-.217.107-.454.19-.73.157-.275-.033-.513-.2-.664-.371l-.002-.001c-.2-.229-.8-.912-1.086-1.333l-.008.002c-.009.003-.025.007-.096.033v.001h-.001c-.044.016-.59.26-1.076.492-.487.232-.98.473-1.141.552-.112.056-.195.101-.255.134-.063.035-.1.056-.114.056-.002.05-.004.103.003.185.02.227.08.54.202.876.06.165.369.504.76.751.39.247.865.422 1.041.448.53.078 1.157.106 1.848-.11.478-.15 1.075-.345 1.847-.674 1.567-.668 2.898-1.805 3.85-2.807.475-.5.856-.967 1.127-1.32.173-.225.284-.38.367-.498a6.53 6.53 0 0 1 .12-.166l.002-.001c.174-.231 1.245-1.72 1.245-3.062 0-1.3-.552-1.877-.92-2.26a8.554 8.554 0 0 1-.096-.102.669.669 0 0 0-.475-.231Z" fill="#000"/><path d="M12.518 3.39c.18-.009.394-.011.612-.011.083 0 .287.03.475.231l.096.102c.368.383.92.96.92 2.26 0 1.341-1.07 2.83-1.245 3.062l-.002.001a6.53 6.53 0 0 0-.12.166 16.759 16.759 0 0 1-1.495 1.818c-.95 1.002-2.282 2.139-3.849 2.807-.772.329-1.369.523-1.848.673-.69.217-1.318.189-1.847.11-.176-.025-.651-.2-1.042-.447-.39-.247-.7-.586-.76-.75a3.591 3.591 0 0 1-.201-.877 1.327 1.327 0 0 1-.003-.185c.014 0 .05-.02.114-.056.06-.033.143-.079.255-.134.16-.08.654-.32 1.14-.552a33.432 33.432 0 0 1 1.077-.492c.072-.027.088-.031.097-.034l.008-.002c.287.421.885 1.104 1.086 1.333h.002c.15.172.389.34.664.372.276.033.513-.05.73-.157.024-.012.07-.031.133-.058.178-.076.498-.211.868-.406a9.23 9.23 0 0 0 1.802-1.252c1.07-.941 1.758-2.062 1.967-2.416.157-.266.202-.623.105-.883-.089-.235-.225-.366-.314-.451l-.027-.026a5.384 5.384 0 0 1-.266-.304 18.17 18.17 0 0 0-.204-.24c-.097-.113-.126-.173-.197-.316a15.162 15.162 0 0 0-.058-.118c-.005-.008-.008-.01-.01-.011.004-.003.016-.015.037-.058h.001v-.002c.043-.086.081-.176.142-.32l.03-.071.235-.56.05-.12.17-.408.416-.998c.053-.125.092-.186.112-.214l.102-.004.042-.002Z" fill="#000"/></svg>