<svg width="23" height="22" fill="none" xmlns="http://www.w3.org/2000/svg"><path d="m11.713 13.696-1.496 1.515s-.065.052-.152.054a.21.21 0 0 1-.095-.02l.42-2.678 1.323 1.13Z" fill="#000"/><path fill-rule="evenodd" clip-rule="evenodd" d="m16.492 6.735-1.635 8.587s-.07.392-.543.392c-.252 0-.381-.123-.381-.123l-3.542-3.023 4.291-4.084a.228.228 0 0 0 .041-.314.214.214 0 0 0-.306-.042L8.661 11.67l-.003-.001-2.224-.608s-.396-.118-.396-.455c0-.28.407-.414.407-.414L15.75 6.39s.284-.106.491-.105c.128 0 .273.056.273.224 0 .112-.021.225-.021.225Z" fill="#000"/><circle cx="11.984" cy="11" r="10.15" stroke="#000" stroke-width="1.7"/></svg>