<svg width="18" height="18" fill="none" xmlns="http://www.w3.org/2000/svg"><path d="m9.125 12.316-2.141 2.108s-.093.072-.218.075a.31.31 0 0 1-.137-.027l.603-3.728 1.893 1.572Z" fill="#000"/><path fill-rule="evenodd" clip-rule="evenodd" d="m15.969 2.625-2.341 11.954s-.101.546-.779.546c-.36 0-.545-.171-.545-.171l-5.072-4.208v-.002l6.145-5.684a.312.312 0 1 0-.38-.496L4.755 9.497l-.004-.002-3.184-.847S1 8.484 1 8.016c0-.391.583-.577.583-.577l13.323-5.293S15.312 2 15.609 2c.183 0 .391.078.391.313 0 .156-.031.312-.031.312Z" fill="#000"/></svg>