<svg width="20" height="21" fill="none" xmlns="http://www.w3.org/2000/svg"><path d="M13.404 11.89a5.015 5.015 0 0 0-.89-.76 7.157 7.157 0 0 0 2.6-4.065.907.907 0 0 0-1.04-1.106.909.909 0 0 0-.733.703 5.326 5.326 0 0 1-2.745 3.548V6.865a.877.877 0 0 0-.04-.196.936.936 0 0 0-.032-.155.899.899 0 0 0-.152-.228c-.017-.018-.025-.043-.042-.061a.91.91 0 0 0-.224-.152c-.023-.013-.04-.034-.065-.044a.927.927 0 0 0-.215-.044.858.858 0 0 0-.138-.029l-.594-.001H9.09a.905.905 0 0 0-.318 1.753v4.446a10.279 10.279 0 0 1-2.737-5.44.91.91 0 1 0-1.792.303 12.122 12.122 0 0 0 4.909 7.859.9.9 0 0 0 .116.058.84.84 0 0 0 .416.113.894.894 0 0 0 .386-.093c.009-.004.019-.001.028-.006a.905.905 0 0 0 .218-.16c.014-.013.022-.027.035-.04a.899.899 0 0 0 .179-.295c.04-.1.061-.207.063-.315v-1.932a3.228 3.228 0 0 1 1.47.913l1.497 1.634a.91.91 0 1 0 1.34-1.23l-1.497-1.632ZM12.794.5H7.215C1.618.5 0 2.116 0 7.706v5.578C0 18.883 1.616 20.5 7.206 20.5h5.578c5.598 0 7.216-1.616 7.216-7.206V7.715C20 2.118 18.384.5 12.794.5Zm5.388 12.794c0 4.581-.807 5.388-5.398 5.388H7.207c-4.582 0-5.389-.807-5.389-5.398V7.707c0-4.582.807-5.389 5.398-5.389h5.578c4.581 0 5.388.807 5.388 5.398v5.578Z" fill="#000"/></svg>