<svg width="18" height="18" fill="none" xmlns="http://www.w3.org/2000/svg"><path d="M13.668 10.152a8.164 8.164 0 0 1 1.467.902l2.47 1.938c.27.21.41.49.394.776-.018.285-.192.555-.485.748a1.88 1.88 0 0 1-1.079.283c-.397-.012-.772-.138-1.04-.349l-2.471-1.938c-.656-.513-1.494-.888-2.424-1.084v2.293a.816.816 0 0 1-.105.373 1.129 1.129 0 0 1-.295.35c-.021.016-.035.033-.057.048-.107.076-.228.14-.36.19-.016.006-.032.002-.047.008-.198.07-.415.108-.636.11a2.006 2.006 0 0 1-.525-.077 1.68 1.68 0 0 1-.162-.058 1.763 1.763 0 0 1-.192-.069C3.811 12.382.898 9.028.021 5.271c-.066-.282.026-.572.256-.805.23-.233.58-.39.973-.439.392-.047.794.019 1.119.184.324.166.544.418.61.7.564 2.43 2.138 4.68 4.515 6.455V6.091c-.33-.087-.606-.255-.781-.475a.823.823 0 0 1-.173-.724c.063-.249.245-.474.516-.635.27-.161.612-.249.963-.247h.004l.981.002c.078.007.154.018.228.034.121.007.24.025.354.052.041.012.07.037.108.052.135.047.26.107.37.18.028.022.041.052.069.074.102.08.186.17.25.27.025.06.042.121.053.184a.788.788 0 0 1 .066.233V9.06c1.135-.423 2.128-1.019 2.91-1.746.783-.727 1.335-1.568 1.62-2.465a.96.96 0 0 1 .235-.388c.114-.117.258-.216.425-.293.168-.076.354-.128.55-.152.195-.025.395-.02.588.01.193.033.376.091.537.174.162.083.299.188.403.309a.917.917 0 0 1 .207.396.785.785 0 0 1-.02.423c-.61 1.917-2.127 3.621-4.29 4.824Z" fill="#000"/></svg>