<svg viewBox="0 0 21 21" fill="none" xmlns="http://www.w3.org/2000/svg"><path fill-rule="evenodd" clip-rule="evenodd" d="M15.288 12.584c-.26-.13-1.539-.758-1.777-.846-.238-.086-.411-.13-.585.131-.173.26-.671.846-.823 1.019-.152.174-.303.195-.563.066-.26-.132-1.098-.406-2.091-1.291-.773-.69-1.295-1.541-1.447-1.802-.151-.26-.016-.4.114-.53.117-.116.26-.304.39-.455.13-.152.174-.26.26-.435.088-.173.044-.324-.022-.455-.064-.13-.584-1.41-.801-1.931-.211-.507-.425-.437-.585-.446A11.249 11.249 0 0 0 6.86 5.6a.953.953 0 0 0-.693.326c-.24.26-.91.889-.91 2.169 0 1.279.93 2.515 1.06 2.69.131.173 1.834 2.8 4.442 3.925.622.268 1.105.428 1.483.547.623.199 1.19.171 1.638.104.498-.075 1.538-.63 1.755-1.237.216-.607.216-1.128.151-1.236-.064-.109-.238-.173-.498-.304Zm-4.744 6.478h-.003c-1.55 0-3.07-.416-4.403-1.206l-.315-.187-3.275.86.875-3.193-.206-.327a8.628 8.628 0 0 1-1.322-4.603c.002-4.768 3.881-8.648 8.653-8.648 2.31 0 4.481.901 6.114 2.536a8.595 8.595 0 0 1 2.53 6.119c-.001 4.768-3.88 8.649-8.648 8.649Zm7.36-16.01A10.337 10.337 0 0 0 10.545 0C4.808 0 .14 4.668.137 10.405a10.381 10.381 0 0 0 1.388 5.202L.05 21l5.516-1.447a10.397 10.397 0 0 0 4.974 1.267h.004c5.735 0 10.404-4.668 10.406-10.407a10.343 10.343 0 0 0-3.045-7.361" fill="#fff"/></svg>